grf
version=1
nRows=17
nColumns=37
inDegrees=no
endheader
time	ground_force_1_vx	ground_force_1_vy	ground_force_1_vz	ground_force_1_px	ground_force_1_py	ground_force_1_pz	ground_moment_1_mx	ground_moment_1_my	ground_moment_1_mz	ground_force_2_vx	ground_force_2_vy	ground_force_2_vz	ground_force_2_px	ground_force_2_py	ground_force_2_pz	ground_moment_2_mx	ground_moment_2_my	ground_moment_2_mz	ground_force_3_vx	ground_force_3_vy	ground_force_3_vz	ground_force_3_px	ground_force_3_py	ground_force_3_pz	ground_moment_3_mx	ground_moment_3_my	ground_moment_3_mz	ground_force_4_vx	ground_force_4_vy	ground_force_4_vz	ground_force_4_px	ground_force_4_py	ground_force_4_pz	ground_moment_4_mx	ground_moment_4_my	ground_moment_4_mz
      2.89000000	      0.00000000	     -0.00000000	      0.00000000	      0.00000000	      0.00000000	      0.00000000	      0.00000000	      0.00000000	      0.00000000	     -4.27686357	     -3.65434647	   -465.20043945	   -336.53375640	  -1009.78931765	      0.00000000	      0.00000000	      0.00000000	   1549.62432877	      3.55456940	     -3.62730081	   -158.83982849	   -329.66366259	   -807.52323466	      0.00000000	      0.00000000	     -0.00000000	  -1652.02013463	      0.00000000	     -0.00000000	      0.00000000	      0.00000000	      0.00000000	      0.00000000	      0.00000000	      0.00000000	      0.00000000
      2.90000000	      0.00000000	     -0.00000000	      0.00000000	      0.00000000	      0.00000000	      0.00000000	      0.00000000	      0.00000000	      0.00000000	     -3.97739005	     -3.21871519	   -466.03085327	   -335.99167803	  -1009.97543557	      0.00000000	      0.00000000	      0.00000000	   1594.87958731	      3.98015826	     -3.48576318	   -158.02601624	   -329.44701571	   -807.19511275	      0.00000000	     -0.00000000	     -0.00000000	  -1791.34682547	      0.00000000	     -0.00000000	      0.00000000	      0.00000000	      0.00000000	      0.00000000	      0.00000000	      0.00000000	      0.00000000
      2.91000000	      0.00000000	     -0.00000000	      0.00000000	      0.00000000	      0.00000000	      0.00000000	      0.00000000	      0.00000000	      0.00000000	     -3.54046297	     -3.21344662	   -465.97384644	   -336.13468962	  -1010.65585845	      0.00000000	      0.00000000	      0.00000000	   1619.86943161	      3.63714188	     -3.42765125	   -157.14048767	   -329.41264270	   -807.28145713	      0.00000000	      0.00000000	     -0.00000000	  -1829.65781751	      0.00000000	     -0.00000000	      0.00000000	      0.00000000	      0.00000000	      0.00000000	      0.00000000	      0.00000000	      0.00000000
      2.92000000	      0.00000000	     -0.00000000	      0.00000000	      0.00000000	      0.00000000	      0.00000000	      0.00000000	      0.00000000	      0.00000000	     -3.11777067	     -3.43840981	   -467.81414795	   -336.53209826	  -1011.36155048	      0.00000000	      0.00000000	      0.00000000	   1503.69382543	      3.68974421	     -3.00841149	   -155.53622437	   -329.69893505	   -806.99171916	      0.00000000	      0.00000000	     -0.00000000	  -1832.06564087	      0.00000000	     -0.00000000	      0.00000000	      0.00000000	      0.00000000	      0.00000000	      0.00000000	      0.00000000	      0.00000000
      2.93000000	      0.00000000	     -0.00000000	      0.00000000	      0.00000000	      0.00000000	      0.00000000	      0.00000000	      0.00000000	      0.00000000	     -2.62954140	     -3.56088281	   -467.07189941	   -337.14074109	  -1009.44826257	      0.00000000	      0.00000000	      0.00000000	   1725.74722910	      3.42846348	     -2.51456005	   -153.07205200	   -330.07260472	   -809.12649858	      0.00000000	      0.00000000	     -0.00000000	  -1781.44841986	      0.00000000	     -0.00000000	      0.00000000	      0.00000000	      0.00000000	      0.00000000	      0.00000000	      0.00000000	      0.00000000
      2.94000000	      0.00000000	     -0.00000000	      0.00000000	      0.00000000	      0.00000000	      0.00000000	      0.00000000	      0.00000000	      0.00000000	     -2.98238397	     -3.96014023	   -469.14257812	   -337.38775026	  -1010.38822902	      0.00000000	      0.00000000	      0.00000000	   1569.75091013	      3.41285709	     -2.38967949	   -152.04565430	   -329.20656824	   -805.62781406	      0.00000000	      0.00000000	     -0.00000000	  -1742.31218564	      0.00000000	     -0.00000000	      0.00000000	      0.00000000	      0.00000000	      0.00000000	      0.00000000	      0.00000000	      0.00000000
      2.95000000	      0.00000000	     -0.00000000	      0.00000000	      0.00000000	      0.00000000	      0.00000000	      0.00000000	      0.00000000	      0.00000000	     -3.11466002	     -3.92558813	   -471.51046753	   -336.97900159	  -1010.91714704	      0.00000000	      0.00000000	      0.00000000	   1633.41498042	      3.63238319	     -1.81770190	   -149.06901550	   -328.63152362	   -809.03296773	      0.00000000	      0.00000000	     -0.00000000	  -1856.76454364	      0.00000000	     -0.00000000	      0.00000000	      0.00000000	      0.00000000	      0.00000000	      0.00000000	      0.00000000	      0.00000000
      2.96000000	      0.00000000	     -0.00000000	      0.00000000	      0.00000000	      0.00000000	      0.00000000	      0.00000000	      0.00000000	      0.00000000	     -3.34722447	     -4.00721073	   -471.34036255	   -336.70606255	  -1010.32523844	      0.00000000	      0.00000000	      0.00000000	   1663.58713950	      3.36644305	     -1.23195725	   -147.15841675	   -328.73195266	   -809.19021202	      0.00000000	      0.00000000	     -0.00000000	  -1820.19387304	      0.00000000	     -0.00000000	      0.00000000	      0.00000000	      0.00000000	      0.00000000	      0.00000000	      0.00000000	      0.00000000
      2.97000000	      0.00000000	     -0.00000000	      0.00000000	      0.00000000	      0.00000000	      0.00000000	      0.00000000	      0.00000000	      0.00000000	     -3.87893939	     -3.69376254	   -473.27474976	   -336.47910782	  -1010.23622440	      0.00000000	      0.00000000	      0.00000000	   1478.52336271	      3.37100974	     -1.02651029	   -145.44728088	   -327.47090710	   -806.47554064	      0.00000000	     -0.00000000	     -0.00000000	  -1893.00729779	      0.00000000	     -0.00000000	      0.00000000	      0.00000000	      0.00000000	      0.00000000	      0.00000000	      0.00000000	      0.00000000
      2.98000000	      0.00000000	     -0.00000000	      0.00000000	      0.00000000	      0.00000000	      0.00000000	      0.00000000	      0.00000000	      0.00000000	     -3.79305077	     -3.59856200	   -475.19726562	   -335.39556352	  -1010.83002125	      0.00000000	      0.00000000	      0.00000000	   1617.29921731	      3.06669779	     -0.48781908	   -142.47006226	   -325.52331600	   -808.44857705	      0.00000000	     -0.00000000	     -0.00000000	  -1940.24017037	      0.00000000	     -0.00000000	      0.00000000	      0.00000000	      0.00000000	      0.00000000	      0.00000000	      0.00000000	      0.00000000
      2.99000000	      0.00000000	     -0.00000000	      0.00000000	      0.00000000	      0.00000000	      0.00000000	      0.00000000	      0.00000000	      0.00000000	     -3.65468097	     -3.60536003	   -477.67004395	   -335.80309593	  -1010.97422895	      0.00000000	      0.00000000	      0.00000000	   1637.14310032	      2.58805368	     -0.27265190	   -141.22422791	   -324.95195831	   -806.09010734	      0.00000000	      0.00000000	      0.00000000	  -1948.08523251	      0.00000000	     -0.00000000	      0.00000000	      0.00000000	      0.00000000	      0.00000000	      0.00000000	      0.00000000	      0.00000000
      3.00000000	      0.00000000	     -0.00000000	      0.00000000	      0.00000000	      0.00000000	      0.00000000	      0.00000000	      0.00000000	      0.00000000	     -3.60325694	     -3.03322220	   -479.81152344	   -335.69292956	  -1011.15581476	      0.00000000	      0.00000000	      0.00000000	   1455.92142807	      2.41548255	      0.30728274	   -138.78048706	   -322.85947754	   -809.28248428	      0.00000000	      0.00000000	     -0.00000000	  -1942.37679445	      0.00000000	     -0.00000000	      0.00000000	      0.00000000	      0.00000000	      0.00000000	      0.00000000	      0.00000000	      0.00000000
      3.01000000	      0.00000000	     -0.00000000	      0.00000000	      0.00000000	      0.00000000	      0.00000000	      0.00000000	      0.00000000	      0.00000000	     -3.03822064	     -3.11703467	   -483.33175659	   -335.79387889	  -1011.60995964	      0.00000000	      0.00000000	      0.00000000	   1573.33111259	      2.61869028	      0.35671560	   -136.86743164	   -323.52732578	   -808.67922000	      0.00000000	      0.00000000	     -0.00000000	  -1995.67800545	      0.00000000	     -0.00000000	      0.00000000	      0.00000000	      0.00000000	      0.00000000	      0.00000000	      0.00000000	      0.00000000
      3.02000000	      0.00000000	     -0.00000000	      0.00000000	      0.00000000	      0.00000000	      0.00000000	      0.00000000	      0.00000000	      0.00000000	     -2.48866749	     -2.93438935	   -486.32879639	   -336.47000989	  -1010.84458204	      0.00000000	      0.00000000	      0.00000000	   1706.43441326	      2.30325993	      0.92256800	   -134.04887390	   -323.51605248	   -809.33480158	      0.00000000	      0.00000000	      0.00000000	  -1810.49743995	      0.00000000	     -0.00000000	      0.00000000	      0.00000000	      0.00000000	      0.00000000	      0.00000000	      0.00000000	      0.00000000
      3.03000000	      0.00000000	     -0.00000000	      0.00000000	      0.00000000	      0.00000000	      0.00000000	      0.00000000	      0.00000000	      0.00000000	     -1.82574296	     -3.29373193	   -488.96545410	   -336.12749235	  -1010.64476278	      0.00000000	      0.00000000	      0.00000000	   1643.59990804	      2.30055345	      1.41019622	   -130.37896729	   -321.98649197	   -809.34177191	      0.00000000	      0.00000000	     -0.00000000	  -1905.59130452	      0.00000000	     -0.00000000	      0.00000000	      0.00000000	      0.00000000	      0.00000000	      0.00000000	      0.00000000	      0.00000000
      3.04000000	      0.00000000	     -0.00000000	      0.00000000	      0.00000000	      0.00000000	      0.00000000	      0.00000000	      0.00000000	      0.00000000	     -1.82975912	     -3.56521606	   -492.14505005	   -336.72132188	  -1010.74909865	      0.00000000	      0.00000000	      0.00000000	   1583.39545299	      1.68550507	      1.81199011	   -128.99496460	   -319.78215749	   -807.15750185	      0.00000000	      0.00000000	     -0.00000000	  -1735.74751362	      0.00000000	     -0.00000000	      0.00000000	      0.00000000	      0.00000000	      0.00000000	      0.00000000	      0.00000000	      0.00000000
      3.05000000	      0.00000000	     -0.00000000	      0.00000000	      0.00000000	      0.00000000	      0.00000000	      0.00000000	      0.00000000	      0.00000000	     -1.87504888	     -3.43721390	   -494.97201538	   -336.63591747	  -1010.77366317	      0.00000000	      0.00000000	      0.00000000	   1632.69161039	      1.63987667	      2.16768346	   -125.85412598	   -320.53863249	   -810.36636203	      0.00000000	      0.00000000	     -0.00000000	  -1983.84993234	      0.00000000	     -0.00000000	      0.00000000	      0.00000000	      0.00000000	      0.00000000	      0.00000000	      0.00000000	      0.00000000
